<svg xmlns="http://www.w3.org/2000/svg" width="1200" height="630" viewBox="0 0 1200 630" font-family="IBM Plex Mono, Menlo, monospace">
  <rect width="1200" height="630" fill="#ffffff"/>
  <path d="M72 116H1128M72 526H1128" stroke="#e8e9ed" stroke-width="2"/>
  <g transform="translate(72 52)" fill="none" stroke="#202124" stroke-width="2">
    <rect x="5" y="5" width="38" height="38" rx="8"/>
    <path d="M14 35V25a10 10 0 0 1 20 0v10" stroke-linejoin="round" stroke-linecap="round"/><path d="M30 31l4 4 4-4" stroke-linejoin="round" stroke-linecap="round"/>
    <rect x="32" y="5" width="6" height="4" fill="#db303d" stroke="none"/>
  </g>
  <text x="132" y="86" fill="#202124" font-size="26" font-weight="600">language relay</text>
  <text x="1128" y="86" fill="#6b6e75" font-size="18" font-weight="500" text-anchor="end">ai mindset apps · 01 · v2.4.0</text>
  <text x="72" y="262" fill="#6b6e75" font-size="84" font-weight="600" letter-spacing="-3">ghbdtn</text>
  <text x="72" y="356" fill="#202124" font-size="84" font-weight="600" letter-spacing="-3">привет</text>
  <text x="404" y="262" fill="#db303d" font-size="84" font-weight="600">→</text>
  <text x="72" y="432" fill="#202124" font-size="30" font-weight="500">wrong layout, repaired where you typed it.</text>
  <text x="72" y="474" fill="#6b6e75" font-size="20">double shift · last word · local by design · agent cli</text>
  <g transform="translate(1010 300) scale(2.2)"><g fill="#e8e9ed"><path d="M-40 29.57L-31.6 33.6L-40 37.63L-48.4 33.6Z"/><path d="M-50 34.37L-41.6 38.4L-50 42.43L-58.4 38.4Z"/><path d="M-30 34.37L-21.6 38.4L-30 42.43L-38.4 38.4Z"/><path d="M-40 39.17L-31.6 43.2L-40 47.23L-48.4 43.2Z"/><path d="M20 58.37L28.4 62.4L20 66.43L11.6 62.4Z"/><path d="M10 63.17L18.4 67.2L10 71.23L1.6 67.2Z"/><path d="M30 63.17L38.4 67.2L30 71.23L21.6 67.2Z"/><path d="M20 67.97L28.4 72L20 76.03L11.6 72Z"/><path d="M-20 39.17L-11.6 43.2L-20 47.23L-28.4 43.2Z"/><path d="M-30 43.97L-21.6 48L-30 52.03L-38.4 48Z"/><path d="M-10 43.97L-1.6 48L-10 52.03L-18.4 48Z"/><path d="M-20 48.77L-11.6 52.8L-20 56.83L-28.4 52.8Z"/><path d="M0 48.77L8.4 52.8L0 56.83L-8.4 52.8Z"/><path d="M10 53.57L18.4 57.6L10 61.63L1.6 57.6Z"/><path d="M-10 53.57L-1.6 57.6L-10 61.63L-18.4 57.6Z"/><path d="M0 58.37L8.4 62.4L0 66.43L-8.4 62.4Z"/></g><g class="aimv-cubes"><g class="aimv-c" stroke="#ffffff" stroke-opacity=".35" stroke-width="0.6" stroke-linejoin="round"><path fill="#202124" d="M-60 28.4L-50 33.2L-50 43.2L-60 38.4Z"/></g><g class="aimv-c" stroke="#ffffff" stroke-opacity=".35" stroke-width="0.6" stroke-linejoin="round"><path fill="#6b6e75" d="M-20 28.4L-30 33.2L-30 43.2L-20 38.4Z"/></g><g class="aimv-c" stroke="#6b6e75" stroke-opacity=".35" stroke-width="0.6" stroke-linejoin="round"><path fill="#e8e9ed" d="M-60 18.4L-50 23.2L-50 33.2L-60 28.4Z"/></g><g class="aimv-c" stroke="#6b6e75" stroke-opacity=".35" stroke-width="0.6" stroke-linejoin="round"><path fill="#f2f3f5" d="M-20 18.4L-30 23.2L-30 33.2L-20 28.4Z"/></g><g class="aimv-c" stroke="#ffffff" stroke-opacity=".35" stroke-width="0.6" stroke-linejoin="round"><path fill="#202124" d="M-50 33.2L-40 38L-40 48L-50 43.2Z"/><path fill="#6b6e75" d="M-30 33.2L-40 38L-40 48L-30 43.2Z"/></g><g class="aimv-c" stroke="#6b6e75" stroke-opacity=".35" stroke-width="0.6" stroke-linejoin="round"><path fill="#e8e9ed" d="M-60 8.4L-50 13.2L-50 23.2L-60 18.4Z"/></g><g class="aimv-c" stroke="#6b6e75" stroke-opacity=".35" stroke-width="0.6" stroke-linejoin="round"><path fill="#f2f3f5" d="M-20 8.4L-30 13.2L-30 23.2L-20 18.4Z"/></g><g class="aimv-c" stroke="#6b6e75" stroke-opacity=".35" stroke-width="0.6" stroke-linejoin="round"><path fill="#e8e9ed" d="M-50 23.2L-40 28L-40 38L-50 33.2Z"/><path fill="#f2f3f5" d="M-30 23.2L-40 28L-40 38L-30 33.2Z"/></g><g class="aimv-c" stroke="#6b6e75" stroke-opacity=".35" stroke-width="0.6" stroke-linejoin="round"><path fill="#e8e9ed" d="M-60 -1.6L-50 3.2L-50 13.2L-60 8.4Z"/></g><g class="aimv-c" stroke="#6b6e75" stroke-opacity=".35" stroke-width="0.6" stroke-linejoin="round"><path fill="#f2f3f5" d="M-20 -1.6L-30 3.2L-30 13.2L-20 8.4Z"/></g><g class="aimv-c" stroke="#6b6e75" stroke-opacity=".35" stroke-width="0.6" stroke-linejoin="round"><path fill="#e8e9ed" d="M-50 13.2L-40 18L-40 28L-50 23.2Z"/><path fill="#f2f3f5" d="M-30 13.2L-40 18L-40 28L-30 23.2Z"/></g><g class="aimv-c" stroke="#6b6e75" stroke-opacity=".35" stroke-width="0.6" stroke-linejoin="round"><path fill="#e8e9ed" d="M-60 -11.6L-50 -6.8L-50 3.2L-60 -1.6Z"/></g><g class="aimv-c" stroke="#6b6e75" stroke-opacity=".35" stroke-width="0.6" stroke-linejoin="round"><path fill="#f2f3f5" d="M-20 -11.6L-30 -6.8L-30 3.2L-20 -1.6Z"/></g><g class="aimv-c" stroke="#6b6e75" stroke-opacity=".35" stroke-width="0.6" stroke-linejoin="round"><path fill="#e8e9ed" d="M-50 3.2L-40 8L-40 18L-50 13.2Z"/><path fill="#f2f3f5" d="M-30 3.2L-40 8L-40 18L-30 13.2Z"/></g><g class="aimv-c" stroke="#6b6e75" stroke-opacity=".35" stroke-width="0.6" stroke-linejoin="round"><path fill="#e8e9ed" d="M-60 -21.6L-50 -16.8L-50 -6.8L-60 -11.6Z"/></g><g class="aimv-c" stroke="#6b6e75" stroke-opacity=".35" stroke-width="0.6" stroke-linejoin="round"><path fill="#f2f3f5" d="M-20 -21.6L-30 -16.8L-30 -6.8L-20 -11.6Z"/></g><g class="aimv-c" stroke="#6b6e75" stroke-opacity=".35" stroke-width="0.6" stroke-linejoin="round"><path fill="#e8e9ed" d="M-50 -6.8L-40 -2L-40 8L-50 3.2Z"/><path fill="#f2f3f5" d="M-30 -6.8L-40 -2L-40 8L-30 3.2Z"/></g><g class="aimv-c" stroke="#6b6e75" stroke-opacity=".35" stroke-width="0.6" stroke-linejoin="round"><path fill="#ffffff" d="M-40 -51.2L-30 -46.4L-40 -41.6L-50 -46.4Z"/></g><g class="aimv-c" stroke="#6b6e75" stroke-opacity=".35" stroke-width="0.6" stroke-linejoin="round"><path fill="#e8e9ed" d="M-60 -31.6L-50 -26.8L-50 -16.8L-60 -21.6Z"/></g><g class="aimv-c" stroke="#6b6e75" stroke-opacity=".35" stroke-width="0.6" stroke-linejoin="round"><path fill="#f2f3f5" d="M-20 -31.6L-30 -26.8L-30 -16.8L-20 -21.6Z"/></g><g class="aimv-c" stroke="#6b6e75" stroke-opacity=".35" stroke-width="0.6" stroke-linejoin="round"><path fill="#e8e9ed" d="M-50 -16.8L-40 -12L-40 -2L-50 -6.8Z"/><path fill="#f2f3f5" d="M-30 -16.8L-40 -12L-40 -2L-30 -6.8Z"/></g><g class="aimv-c" stroke="#ffffff" stroke-opacity=".35" stroke-width="0.6" stroke-linejoin="round"><path fill="#202124" d="M0 57.2L10 62L10 72L0 67.2Z"/></g><g class="aimv-c" stroke="#ffffff" stroke-opacity=".35" stroke-width="0.6" stroke-linejoin="round"><path fill="#6b6e75" d="M40 57.2L30 62L30 72L40 67.2Z"/></g><g class="aimv-c" stroke="#6b6e75" stroke-opacity=".35" stroke-width="0.6" stroke-linejoin="round"><path fill="#ffffff" d="M-50 -46.4L-40 -41.6L-50 -36.8L-60 -41.6Z"/><path fill="#e8e9ed" d="M-60 -41.6L-50 -36.8L-50 -26.8L-60 -31.6Z"/></g><g class="aimv-c" stroke="#6b6e75" stroke-opacity=".35" stroke-width="0.6" stroke-linejoin="round"><path fill="#f2f3f5" d="M-20 -41.6L-30 -36.8L-30 -26.8L-20 -31.6Z"/></g><g class="aimv-c" stroke="#6b6e75" stroke-opacity=".35" stroke-width="0.6" stroke-linejoin="round"><path fill="#e8e9ed" d="M-50 -26.8L-40 -22L-40 -12L-50 -16.8Z"/><path fill="#f2f3f5" d="M-30 -26.8L-40 -22L-40 -12L-30 -16.8Z"/></g><g class="aimv-c" stroke="#6b6e75" stroke-opacity=".35" stroke-width="0.6" stroke-linejoin="round"><path fill="#e8e9ed" d="M0 47.2L10 52L10 62L0 57.2Z"/></g><g class="aimv-c" stroke="#6b6e75" stroke-opacity=".35" stroke-width="0.6" stroke-linejoin="round"><path fill="#f2f3f5" d="M40 47.2L30 52L30 62L40 57.2Z"/></g><g class="aimv-c" stroke="#ffffff" stroke-opacity=".35" stroke-width="0.6" stroke-linejoin="round"><path fill="#db303d" d="M10 62L20 66.8L20 76.8L10 72Z"/><path fill="#db303d" d="M30 62L20 66.8L20 76.8L30 72Z"/></g><g class="aimv-c" stroke="#6b6e75" stroke-opacity=".35" stroke-width="0.6" stroke-linejoin="round"><path fill="#ffffff" d="M-30 -56.4L-20 -51.6L-30 -46.8L-40 -51.6Z"/></g><g class="aimv-c" stroke="#6b6e75" stroke-opacity=".35" stroke-width="0.6" stroke-linejoin="round"><path fill="#e8e9ed" d="M-50 -36.8L-40 -32L-40 -22L-50 -26.8Z"/><path fill="#f2f3f5" d="M-30 -36.8L-40 -32L-40 -22L-30 -26.8Z"/></g><g class="aimv-c" stroke="#6b6e75" stroke-opacity=".35" stroke-width="0.6" stroke-linejoin="round"><path fill="#e8e9ed" d="M0 37.2L10 42L10 52L0 47.2Z"/></g><g class="aimv-c" stroke="#6b6e75" stroke-opacity=".35" stroke-width="0.6" stroke-linejoin="round"><path fill="#f2f3f5" d="M40 37.2L30 42L30 52L40 47.2Z"/></g><g class="aimv-c" stroke="#6b6e75" stroke-opacity=".35" stroke-width="0.6" stroke-linejoin="round"><path fill="#e8e9ed" d="M10 52L20 56.8L20 66.8L10 62Z"/><path fill="#f2f3f5" d="M30 52L20 56.8L20 66.8L30 62Z"/></g><g class="aimv-c" stroke="#6b6e75" stroke-opacity=".35" stroke-width="0.6" stroke-linejoin="round"><path fill="#ffffff" d="M-40 -51.6L-30 -46.8L-40 -42L-50 -46.8Z"/><path fill="#e8e9ed" d="M-50 -46.8L-40 -42L-40 -32L-50 -36.8Z"/></g><g class="aimv-c" stroke="#6b6e75" stroke-opacity=".35" stroke-width="0.6" stroke-linejoin="round"><path fill="#f2f3f5" d="M-10 -46.8L-20 -42L-20 -32L-10 -36.8Z"/></g><g class="aimv-c" stroke="#6b6e75" stroke-opacity=".35" stroke-width="0.6" stroke-linejoin="round"><path fill="#e8e9ed" d="M0 27.2L10 32L10 42L0 37.2Z"/></g><g class="aimv-c" stroke="#6b6e75" stroke-opacity=".35" stroke-width="0.6" stroke-linejoin="round"><path fill="#f2f3f5" d="M40 27.2L30 32L30 42L40 37.2Z"/></g><g class="aimv-c" stroke="#6b6e75" stroke-opacity=".35" stroke-width="0.6" stroke-linejoin="round"><path fill="#e8e9ed" d="M10 42L20 46.8L20 56.8L10 52Z"/><path fill="#f2f3f5" d="M30 42L20 46.8L20 56.8L30 52Z"/></g><g class="aimv-c" stroke="#ffffff" stroke-opacity=".35" stroke-width="0.6" stroke-linejoin="round"><path fill="#e8e9ed" d="M-20 -61.6L-10 -56.8L-20 -52L-30 -56.8Z"/></g><g class="aimv-c" stroke="#6b6e75" stroke-opacity=".35" stroke-width="0.6" stroke-linejoin="round"><path fill="#e8e9ed" d="M-40 -42L-30 -37.2L-30 -27.2L-40 -32Z"/><path fill="#f2f3f5" d="M-20 -42L-30 -37.2L-30 -27.2L-20 -32Z"/></g><g class="aimv-c" stroke="#6b6e75" stroke-opacity=".35" stroke-width="0.6" stroke-linejoin="round"><path fill="#e8e9ed" d="M0 17.2L10 22L10 32L0 27.2Z"/></g><g class="aimv-c" stroke="#6b6e75" stroke-opacity=".35" stroke-width="0.6" stroke-linejoin="round"><path fill="#f2f3f5" d="M40 17.2L30 22L30 32L40 27.2Z"/></g><g class="aimv-c" stroke="#6b6e75" stroke-opacity=".35" stroke-width="0.6" stroke-linejoin="round"><path fill="#e8e9ed" d="M10 32L20 36.8L20 46.8L10 42Z"/><path fill="#f2f3f5" d="M30 32L20 36.8L20 46.8L30 42Z"/></g><g class="aimv-c" stroke="#ffffff" stroke-opacity=".35" stroke-width="0.6" stroke-linejoin="round"><path fill="#e8e9ed" d="M-30 -56.8L-20 -52L-30 -47.2L-40 -52Z"/><path fill="#6b6e75" d="M-40 -52L-30 -47.2L-30 -37.2L-40 -42Z"/></g><g class="aimv-c" stroke="#ffffff" stroke-opacity=".35" stroke-width="0.6" stroke-linejoin="round"><path fill="#e8e9ed" d="M-10 -56.8L0 -52L-10 -47.2L-20 -52Z"/></g><g class="aimv-c" stroke="#6b6e75" stroke-opacity=".35" stroke-width="0.6" stroke-linejoin="round"><path fill="#e8e9ed" d="M0 7.2L10 12L10 22L0 17.2Z"/></g><g class="aimv-c" stroke="#6b6e75" stroke-opacity=".35" stroke-width="0.6" stroke-linejoin="round"><path fill="#f2f3f5" d="M40 7.2L30 12L30 22L40 17.2Z"/></g><g class="aimv-c" stroke="#6b6e75" stroke-opacity=".35" stroke-width="0.6" stroke-linejoin="round"><path fill="#e8e9ed" d="M10 22L20 26.8L20 36.8L10 32Z"/><path fill="#f2f3f5" d="M30 22L20 26.8L20 36.8L30 32Z"/></g><g class="aimv-c" stroke="#ffffff" stroke-opacity=".35" stroke-width="0.6" stroke-linejoin="round"><path fill="#e8e9ed" d="M-20 -52L-10 -47.2L-20 -42.4L-30 -47.2Z"/><path fill="#6b6e75" d="M-30 -47.2L-20 -42.4L-20 -32.4L-30 -37.2Z"/></g><g class="aimv-c" stroke="#ffffff" stroke-opacity=".35" stroke-width="0.6" stroke-linejoin="round"><path fill="#e8e9ed" d="M0 -52L10 -47.2L0 -42.4L-10 -47.2Z"/></g><g class="aimv-c" stroke="#6b6e75" stroke-opacity=".35" stroke-width="0.6" stroke-linejoin="round"><path fill="#e8e9ed" d="M0 -2.8L10 2L10 12L0 7.2Z"/></g><g class="aimv-c" stroke="#6b6e75" stroke-opacity=".35" stroke-width="0.6" stroke-linejoin="round"><path fill="#f2f3f5" d="M40 -2.8L30 2L30 12L40 7.2Z"/></g><g class="aimv-c" stroke="#6b6e75" stroke-opacity=".35" stroke-width="0.6" stroke-linejoin="round"><path fill="#e8e9ed" d="M10 12L20 16.8L20 26.8L10 22Z"/><path fill="#f2f3f5" d="M30 12L20 16.8L20 26.8L30 22Z"/></g><g class="aimv-c" stroke="#ffffff" stroke-opacity=".35" stroke-width="0.6" stroke-linejoin="round"><path fill="#e8e9ed" d="M-10 -47.2L0 -42.4L-10 -37.6L-20 -42.4Z"/><path fill="#6b6e75" d="M-20 -42.4L-10 -37.6L-10 -27.6L-20 -32.4Z"/></g><g class="aimv-c" stroke="#ffffff" stroke-opacity=".35" stroke-width="0.6" stroke-linejoin="round"><path fill="#e8e9ed" d="M10 -47.2L20 -42.4L10 -37.6L0 -42.4Z"/><path fill="#6b6e75" d="M20 -42.4L10 -37.6L10 -27.6L20 -32.4Z"/></g><g class="aimv-c" stroke="#6b6e75" stroke-opacity=".35" stroke-width="0.6" stroke-linejoin="round"><path fill="#e8e9ed" d="M-10 -27.6L0 -22.8L0 -12.8L-10 -17.6Z"/></g><g class="aimv-c" stroke="#6b6e75" stroke-opacity=".35" stroke-width="0.6" stroke-linejoin="round"><path fill="#ffffff" d="M20 -32.4L30 -27.6L20 -22.8L10 -27.6Z"/><path fill="#f2f3f5" d="M30 -27.6L20 -22.8L20 -12.8L30 -17.6Z"/></g><g class="aimv-c" stroke="#6b6e75" stroke-opacity=".35" stroke-width="0.6" stroke-linejoin="round"><path fill="#e8e9ed" d="M0 -12.8L10 -8L10 2L0 -2.8Z"/></g><g class="aimv-c" stroke="#6b6e75" stroke-opacity=".35" stroke-width="0.6" stroke-linejoin="round"><path fill="#ffffff" d="M30 -17.6L40 -12.8L30 -8L20 -12.8Z"/><path fill="#f2f3f5" d="M40 -12.8L30 -8L30 2L40 -2.8Z"/></g><g class="aimv-c" stroke="#6b6e75" stroke-opacity=".35" stroke-width="0.6" stroke-linejoin="round"><path fill="#e8e9ed" d="M10 2L20 6.8L20 16.8L10 12Z"/><path fill="#f2f3f5" d="M30 2L20 6.8L20 16.8L30 12Z"/></g><g class="aimv-c" stroke="#ffffff" stroke-opacity=".35" stroke-width="0.6" stroke-linejoin="round"><path fill="#e8e9ed" d="M0 -42.4L10 -37.6L0 -32.8L-10 -37.6Z"/><path fill="#6b6e75" d="M-10 -37.6L0 -32.8L0 -22.8L-10 -27.6Z"/><path fill="#6b6e75" d="M10 -37.6L0 -32.8L0 -22.8L10 -27.6Z"/></g><g class="aimv-c" stroke="#6b6e75" stroke-opacity=".35" stroke-width="0.6" stroke-linejoin="round"><path fill="#ffffff" d="M10 -27.6L20 -22.8L10 -18L0 -22.8Z"/><path fill="#e8e9ed" d="M0 -22.8L10 -18L10 -8L0 -12.8Z"/><path fill="#f2f3f5" d="M20 -22.8L10 -18L10 -8L20 -12.8Z"/></g><g class="aimv-c" stroke="#6b6e75" stroke-opacity=".35" stroke-width="0.6" stroke-linejoin="round"><path fill="#ffffff" d="M20 -12.8L30 -8L20 -3.2L10 -8Z"/><path fill="#e8e9ed" d="M10 -8L20 -3.2L20 6.8L10 2Z"/><path fill="#f2f3f5" d="M30 -8L20 -3.2L20 6.8L30 2Z"/></g></g></g>
  <text x="72" y="566" fill="#6b6e75" font-size="18" font-weight="500">macos · no account · no telemetry · open source</text>
  <text x="1128" y="566" fill="#202124" font-size="18" font-weight="500" text-anchor="end">alexander povaliaev</text>
</svg>
